<svg width="64px" height="64px" viewBox="0 0 24 24" fill="none" xmlns="http://www.w3.org/2000/svg">
    <!-- Magnifying Glass -->
    <circle cx="10" cy="10" r="8" stroke="black" stroke-width="2" fill="none"/>
    <line x1="14" y1="14" x2="20" y2="20" stroke="black" stroke-width="2"/>

    <!-- Chart bars themed for airplane price prediction -->
    <rect x="2" y="16" width="2" height="4" fill="#4CAF50"/>
    <rect x="6" y="12" width="2" height="8" fill="#2196F3"/>
    <rect x="10" y="8" width="2" height="12" fill="#FFC107"/>
    <rect x="14" y="10" width="2" height="10" fill="#F44336"/>

    <!-- Chart lines -->
    <line x1="2" y1="16" x2="6" y2="12" stroke="black" stroke-width="1"/>
    <line x1="6" y1="12" x2="10" y2="8" stroke="black" stroke-width="1"/>
    <line x1="10" y1="8" x2="14" y2="10" stroke="black" stroke-width="1"/>

    <!-- Airplane icon in the middle of the magnifying glass -->
    <path d="M9.5 8L11.5 9L12 8.5L14 11.5L11.5 11L11 11.5L10 10.5L9 11.5L9.5 11L8 12.5L7 12L8.5 10L8 9.5L9.5 8Z" fill="black"/>
</svg>
